HIERARCHY
ROOT Hips
{
	OFFSET 0.00 0.00 0.00
	CHANNELS 6 Xposition Yposition Zposition Yrotation Xrotation Zrotation
	JOINT LHipJoint
	{
		OFFSET	0.0000	0.0000	0.0000
		CHANNELS 3 Yrotation Xrotation Zrotation
		JOINT LeftUpLeg
		{
			OFFSET	1.0138	-0.0809	-0.0827
			CHANNELS 3 Yrotation Xrotation Zrotation
			JOINT LeftLeg
			{
				OFFSET	0.4110	-3.9095	0.3245
				CHANNELS 3 Yrotation Xrotation Zrotation
				JOINT LeftFoot
				{
					OFFSET	0.3810	-4.0555	-0.1470
					CHANNELS 3 Yrotation Xrotation Zrotation
					JOINT LeftToeBase
					{
						OFFSET	0.1396	-0.4462	1.3079
						CHANNELS 3 Yrotation Xrotation Zrotation
						End Site
						{
							OFFSET 0.0161 -0.0248 0.1809
						}
					}
				}
			}
		}
	}
	JOINT LowerBack
	{
		OFFSET	0.0000	0.7977	-0.3873
		CHANNELS 3 Yrotation Xrotation Zrotation
		JOINT Spine
		{
			OFFSET	0.0000	1.4131	0.1715
			CHANNELS 3 Yrotation Xrotation Zrotation
			JOINT Spine1
			{
				OFFSET	0.0000	1.4392	-0.1032
				CHANNELS 3 Yrotation Xrotation Zrotation
				JOINT LeftShoulder
				{
					OFFSET	0.2274	1.0382	0.4032
					CHANNELS 3 Yrotation Xrotation Zrotation
					JOINT LeftArm
					{
						OFFSET	1.4730	-0.2267	-0.0231
						CHANNELS 3 Yrotation Xrotation Zrotation
						JOINT LeftForeArm
						{
							OFFSET	1.6131	-1.8059	0.0081
							CHANNELS 3 Yrotation Xrotation Zrotation
							JOINT LeftHand
							{
								OFFSET	1.2197	-1.2423	1.6317
								CHANNELS 3 Yrotation Xrotation Zrotation
								JOINT LThumb
								{
									OFFSET	0.0109	-0.0753	0.4387
									CHANNELS 3 Yrotation Xrotation Zrotation
									End Site
									{
										OFFSET -0.2090 -0.0868 0.2097
									}
								}
								JOINT LeftFingerBase
								{
									OFFSET	0.1071	-0.1567	0.2607
									CHANNELS 3 Yrotation Xrotation Zrotation
									JOINT LeftHandFinger1
									{
										OFFSET	0.1706	-0.2492	0.6830
										CHANNELS 3 Yrotation Xrotation Zrotation
										End Site
										{
											OFFSET 0.0335 -0.1507 0.2071
										}
									}
								}
							}
						}
					}
				}
				JOINT Neck
				{
					OFFSET	0.0000	1.7498	0.2381
					CHANNELS 3 Yrotation Xrotation Zrotation
					JOINT Neck1
					{
						OFFSET	0.0000	0.5043	0.1959
						CHANNELS 3 Yrotation Xrotation Zrotation
						JOINT Head
						{
							OFFSET	0.0000	0.5044	0.1959
							CHANNELS 3 Yrotation Xrotation Zrotation
							End Site
							{
								OFFSET 0.0000 1.4798 -0.0693
							}
						}
					}
				}
				JOINT RightShoulder
				{
					OFFSET	-0.2274	1.0382	0.4032
					CHANNELS 3 Yrotation Xrotation Zrotation
					JOINT RightArm
					{
						OFFSET	-1.4730	-0.2267	-0.0231
						CHANNELS 3 Yrotation Xrotation Zrotation
						JOINT RightForeArm
						{
							OFFSET	-1.6131	-1.8059	0.0081
							CHANNELS 3 Yrotation Xrotation Zrotation
							JOINT RightHand
							{
								OFFSET	-1.2197	-1.2423	1.6317
								CHANNELS 3 Yrotation Xrotation Zrotation
								JOINT RThumb
								{
									OFFSET	-0.0109	-0.0753	0.4387
									CHANNELS 3 Yrotation Xrotation Zrotation
									End Site
									{
										OFFSET 0.2090 -0.0868 0.2097
									}
								}
								JOINT RightFingerBase
								{
									OFFSET	-0.1071	-0.1567	0.2607
									CHANNELS 3 Yrotation Xrotation Zrotation
									JOINT RightHandFinger1
									{
										OFFSET	-0.1706	-0.2492	0.6830
										CHANNELS 3 Yrotation Xrotation Zrotation
										End Site
										{
											OFFSET -0.0335 -0.1507 0.2071
										}
									}
								}
							}
						}
					}
				}
			}
		}
	}
	JOINT RHipJoint
	{
		OFFSET	0.0000	0.0000	0.0000
		CHANNELS 3 Yrotation Xrotation Zrotation
		JOINT RightUpLeg
		{
			OFFSET	-1.0138	-0.0809	-0.0827
			CHANNELS 3 Yrotation Xrotation Zrotation
			JOINT RightLeg
			{
				OFFSET	-0.4110	-3.9095	0.3245
				CHANNELS 3 Yrotation Xrotation Zrotation
				JOINT RightFoot
				{
					OFFSET	-0.3810	-4.0555	-0.1470
					CHANNELS 3 Yrotation Xrotation Zrotation
					JOINT RightToeBase
					{
						OFFSET	-0.1396	-0.4462	1.3079
						CHANNELS 3 Yrotation Xrotation Zrotation
						End Site
						{
							OFFSET -0.0161 -0.0248 0.1809
						}
					}
				}
			}
		}
	}
}
MOTION
Frames: 14
Frame Time: 0.0333333
-0.8757 3.4678 -1.6869 23.0001 48.9507 18.7933 0.0000 -0.0000 0.0000 -123.4837 -84.0346 116.0444 143.2849 42.4825 140.5261 8.5107 24.1751 30.0429 1.4686 9.1157 8.9614 0.0000 -0.0000 0.0000 3.1266 13.8185 1.6221 5.2385 27.6695 2.2480 -17.6691 2.0830 10.0262 -66.9967 -47.0620 46.0518 -2.7273 -1.8759 -1.9032 29.0929 50.4662 4.5622 33.0164 -0.8425 5.2611 -16.4727 30.6720 -20.1127 -14.9806 5.0323 -9.7794 -4.0993 -2.5527 -0.4323 -3.3642 -13.6315 0.1207 -14.5328 -13.8663 5.1434 18.9992 1.1595 -2.5978 41.5385 -56.4672 -40.9658 -10.6247 12.8134 0.8867 -0.5944 -39.7051 -76.8036 -25.0435 3.0409 11.3270 0.5102 7.9892 3.0710 0.7864 -10.2935 -1.8974 0.0000 -0.0000 0.0000 -4.4144 -28.0633 9.8844 -2.3576 78.6072 -0.3417 2.3658 27.4957 19.0674 4.9578 24.5842 4.4355 
-0.8332 3.4804 -1.6516 20.1296 49.4744 16.7688 0.0000 -0.0000 0.0000 -120.4220 -83.3228 113.6988 142.4808 41.4461 140.3536 10.3128 23.6737 25.5537 1.1721 9.3346 8.4079 0.0000 -0.0000 0.0000 2.9429 14.2838 1.3401 4.7472 28.6167 1.5386 -17.4685 2.5622 12.9097 -68.8379 -52.2261 52.3107 -4.0767 -3.3791 -1.8137 32.5420 44.7924 13.9884 32.3548 -0.4173 3.6714 -13.9347 29.2219 -17.8349 -13.5672 3.7728 -8.5669 -3.7656 -3.0310 -1.0235 -2.9234 -14.0976 -0.5064 -13.6901 -13.1325 5.6376 19.2830 0.9003 -1.0272 45.1257 -55.8884 -42.3942 -11.1110 13.3231 0.7862 2.3329 -40.4605 -79.0531 -25.0435 3.0412 11.3274 0.5104 7.9894 3.0711 0.7864 -10.2935 -1.8974 0.0000 -0.0000 0.0000 -2.9366 -25.1529 9.5391 -5.7140 74.8779 -4.3797 2.0207 26.9977 17.6791 5.1475 25.9848 4.6886 
-0.7796 3.5010 -1.6149 17.3580 50.3025 14.9511 0.0000 -0.0000 0.0000 -111.7770 -83.1877 105.1524 141.7417 41.2033 139.8818 11.2117 23.0810 22.2820 1.0144 9.8788 7.9909 0.0000 -0.0000 0.0000 2.6734 14.7196 1.0424 4.0833 29.5010 0.7553 -17.8104 2.8510 14.8579 -72.0057 -56.9835 60.2420 -5.1192 -4.5353 -1.7206 34.7392 39.2774 23.2431 31.5935 0.0436 1.9317 -11.2680 27.5325 -15.4479 -12.0471 2.3552 -7.2727 -3.3644 -3.4940 -1.5793 -2.4215 -14.5485 -1.0959 -12.5907 -12.5104 6.0310 19.1494 0.6522 0.4213 48.0944 -55.9640 -42.7405 -10.8100 13.0079 0.8489 5.9376 -40.2330 -81.9697 -25.0435 3.0414 11.3276 0.5105 7.9896 3.0713 0.7864 -10.2935 -1.8974 0.0000 -0.0000 0.0000 -1.7237 -22.4796 8.9732 -7.9274 70.8149 -7.3285 1.5475 26.1582 15.7654 5.4147 27.7702 5.0081 
-0.7133 3.5275 -1.5798 14.2152 51.4174 12.7507 0.0000 -0.0000 0.0000 -95.1559 -83.3113 88.2427 140.3680 41.6639 138.6002 11.5512 23.2962 20.7166 0.7925 11.0952 7.0843 0.0000 -0.0000 0.0000 2.3198 15.1656 0.7976 3.2561 30.3977 0.0283 -18.2417 3.2978 16.9024 -76.3424 -61.2238 69.7100 -5.8542 -5.3468 -1.6424 34.8068 32.0056 30.4353 30.7358 0.5300 0.0706 -8.5411 25.6141 -13.0149 -10.4509 0.7948 -5.9253 -2.8446 -3.8900 -2.0005 -1.8244 -14.9350 -1.5460 -10.9108 -11.9230 6.0593 18.8280 0.4265 1.7597 51.5062 -56.7273 -42.9577 -10.3157 12.4881 0.9483 10.4469 -39.0634 -85.3057 -25.0435 3.0405 11.3263 0.5098 7.9889 3.0706 0.7865 -10.2934 -1.8974 0.0000 -0.0000 0.0000 -0.5985 -19.9158 8.4294 -10.1699 66.2074 -10.2266 0.8008 25.1615 12.3424 5.9523 29.5946 5.5436 
-0.6363 3.5562 -1.5551 10.6811 52.7904 10.0671 0.0000 -0.0000 0.0000 -75.8242 -83.3008 68.7593 138.0628 42.5323 136.3841 12.6089 25.2408 20.4443 0.4697 13.0585 5.4727 0.0000 -0.0000 0.0000 1.7326 15.6130 0.5269 1.8881 31.2821 -0.8659 -18.3148 4.1511 20.0761 -79.3663 -65.0233 78.9141 -6.5835 -6.1487 -1.5546 32.9357 21.3182 35.1904 29.8046 1.0223 -1.8478 -5.8630 23.5248 -10.6340 -8.8371 -0.8596 -4.5763 -2.2042 -4.3517 -2.1361 -1.1558 -15.3932 -1.7039 -8.4649 -11.2361 5.4747 18.5400 0.2318 2.8874 56.5118 -58.0636 -43.8524 -10.3791 12.5549 0.9358 15.8217 -37.4150 -88.6774 -25.0434 3.0392 11.3247 0.5091 7.9879 3.0698 0.7865 -10.2933 -1.8973 0.0000 -0.0000 0.0000 0.4055 -17.6728 7.9643 -12.6613 61.1265 -13.0131 -0.2055 24.1786 7.1677 6.1027 30.9758 5.7678 
-0.5537 3.5846 -1.5472 7.5975 54.4756 7.7462 0.0000 -0.0000 0.0000 -61.2019 -83.6596 54.3717 135.6412 43.6059 133.9691 15.3869 28.5400 20.1093 0.2153 15.2726 3.7687 0.0000 -0.0000 0.0000 0.7586 15.8961 0.0692 -0.4131 31.8030 -2.3004 -18.0503 5.3957 24.7317 -78.0123 -68.7884 84.9555 -7.1652 -6.7855 -1.4774 29.9155 8.3125 39.2276 28.8372 1.4979 -3.7436 -3.3437 21.3567 -8.4029 -7.2725 -2.5386 -3.2824 -1.5369 -5.0833 -1.8973 -0.5258 -16.1290 -1.4797 -5.5401 -10.5014 4.3277 18.2687 0.0817 3.6610 62.5151 -59.6502 -44.8346 -11.1929 13.4086 0.7689 21.5587 -36.0223 -91.8072 -25.0435 3.0411 11.3275 0.5104 7.9893 3.0711 0.7864 -10.2935 -1.8974 0.0000 -0.0000 0.0000 0.6132 -16.3719 7.3903 -15.1821 56.1787 -15.2120 -1.3045 23.3325 0.9421 3.5305 32.1581 3.8976 
-0.4688 3.6112 -1.5528 5.6773 56.5697 6.5486 0.0000 -0.0000 0.0000 -49.0968 -84.8370 42.6532 134.4026 44.9096 132.4778 18.6364 31.0511 18.4680 0.1299 16.1914 2.9882 0.0000 -0.0000 0.0000 -0.3922 15.7502 -0.5266 -3.1039 31.4188 -4.0078 -17.9631 6.5685 29.2836 -72.6318 -71.4412 86.5404 -6.5229 -6.0822 -1.5623 25.5648 -3.2584 44.0702 27.8722 1.9390 -5.5488 -1.0566 19.2035 -6.3858 -5.8090 -4.1770 -2.0860 -0.9776 -6.0627 -1.3818 -0.0562 -17.1178 -0.9683 -2.8028 -10.0951 2.9870 17.9093 0.0048 3.9491 66.0620 -61.1247 -43.5263 -11.9274 14.1722 0.6080 26.6954 -35.2307 -94.5004 -25.0439 3.0465 11.3345 0.5138 7.9933 3.0746 0.7861 -10.2939 -1.8976 0.0000 -0.0000 0.0000 -0.6972 -16.4087 6.6553 -18.2542 52.1474 -17.3077 -2.4967 23.1828 -5.9993 -1.2648 28.8175 -1.5737 
-0.3822 3.6332 -1.5655 4.1967 58.9800 5.7135 0.0000 -0.0000 0.0000 -31.6898 -86.1423 25.6418 134.9115 46.4502 132.4372 19.7632 30.8489 15.5942 0.1938 14.5871 3.6527 0.0000 -0.0000 0.0000 -1.1932 15.0838 -0.9573 -4.8558 30.0047 -5.0785 -18.2635 7.3212 32.0980 -67.3499 -72.1381 85.5505 -4.3877 -3.7247 -1.7881 20.5696 -10.5392 49.1466 26.9473 2.3330 -7.2083 0.9546 17.1529 -4.6189 -4.4853 -5.7161 -1.0163 -0.5889 -7.0028 -0.8289 0.2285 -18.0670 -0.4101 -0.7580 -10.3587 1.8455 17.8036 -0.1033 3.9963 63.6164 -61.7275 -38.0897 -11.4019 13.6266 0.7241 30.1834 -34.6633 -96.3403 -25.0438 3.0446 11.3311 0.5122 7.9921 3.0732 0.7863 -10.2937 -1.8975 0.0000 -0.0000 0.0000 -2.8047 -18.1191 5.7726 -20.5535 50.0165 -18.7242 -3.2112 24.2597 -9.2349 -5.2026 21.6145 -8.0899 
-0.2955 3.6492 -1.5838 1.4967 61.3873 3.4570 0.0000 -0.0000 0.0000 -10.5639 -86.5875 5.1245 136.6782 48.1318 133.4507 18.1569 28.2083 13.0938 0.4833 11.5566 5.5601 0.0000 -0.0000 0.0000 -1.3562 14.1130 -1.0390 -5.0243 28.0565 -5.0726 -18.5240 7.2533 32.0764 -66.3162 -70.5228 85.2799 -1.4275 -0.4230 -1.9558 17.2273 -14.1961 52.4027 26.1040 2.6694 -8.6675 2.6547 15.2966 -3.1307 -3.3375 -7.0952 -0.0992 -0.3242 -7.6691 -0.4137 0.4077 -18.7397 0.0110 0.6420 -11.1204 1.0711 18.7371 -0.4135 4.1796 55.5964 -60.6303 -29.9089 -9.3334 11.4468 1.1327 31.7428 -33.8680 -96.9905 -25.0426 3.0270 11.3076 0.5008 7.9791 3.0617 0.7873 -10.2924 -1.8967 0.0000 -0.0000 0.0000 -4.1905 -20.7958 5.5064 -21.9472 49.3212 -19.8297 -3.7932 25.5683 -11.1600 -5.7609 15.0764 -11.4892 
-0.2107 3.6661 -1.6055 -3.1754 63.3635 -0.9602 0.0000 -0.0000 0.0000 1.9115 -86.1108 -6.4087 138.4778 49.8194 134.4745 15.6283 24.7787 11.9959 1.0944 9.4045 7.8509 0.0000 -0.0000 0.0000 -1.0949 13.2193 -0.9359 -4.2165 26.3102 -4.5125 -18.0010 6.4913 30.1774 -68.2434 -67.9856 85.1753 1.1367 2.4470 -1.9630 16.3831 -16.4673 53.3892 25.3970 2.9355 -9.8549 3.9933 13.7515 -1.9629 -2.4140 -8.2345 0.6312 -0.1132 -8.1050 -0.1197 0.5548 -19.1800 0.3034 1.7618 -11.8412 0.5607 21.0650 -1.0156 4.6282 46.1397 -58.0085 -22.7206 -6.6059 8.5040 1.5511 32.1410 -33.0900 -96.7901 -25.0419 3.0198 11.3008 0.4973 7.9732 3.0576 0.7875 -10.2921 -1.8966 0.0000 -0.0000 0.0000 -3.6996 -24.1238 5.8326 -22.5876 50.1489 -20.9151 -4.1514 27.0531 -11.5841 -5.5065 13.5550 -11.7807 
-0.1249 3.6959 -1.6206 -8.7067 64.6279 -6.2459 0.0000 -0.0000 0.0000 8.7991 -84.7325 -12.3776 138.9984 51.5269 134.3467 14.1766 21.6927 11.7198 1.7286 9.1193 9.3346 0.0000 -0.0000 0.0000 -0.7731 12.7052 -0.9104 -3.3246 25.3201 -4.1123 -16.3255 5.5116 27.8689 -71.7556 -65.8790 85.0130 2.6838 4.1742 -1.9052 16.5004 -18.7727 53.8699 24.8925 3.1170 -10.6836 4.9046 12.6553 -1.1697 -1.7748 -9.0388 1.1325 0.0447 -8.4733 0.1535 0.6580 -19.5528 0.5668 2.7460 -12.2514 0.1023 23.9796 -1.7766 5.1273 38.6840 -55.0782 -18.5041 -4.3846 6.0626 1.7880 32.5921 -32.9835 -96.7560 -25.0452 3.0687 11.3679 0.5298 8.0088 3.0897 0.7845 -10.2960 -1.8989 0.0000 -0.0000 0.0000 -1.6874 -27.9688 6.0877 -23.2431 52.4546 -22.3360 -4.0651 28.4633 -10.1190 -5.3980 12.8725 -11.7139 
-0.0314 3.7421 -1.6195 -13.0266 65.2881 -10.2928 0.0000 -0.0000 0.0000 14.1550 -82.3100 -17.5390 137.8668 53.3880 132.6876 14.1826 18.8076 11.3124 1.9573 10.0649 9.7113 0.0000 -0.0000 0.0000 -0.5297 12.6415 -0.9576 -2.6401 25.2185 -3.9042 -13.7907 4.7248 26.1955 -76.4288 -65.1907 85.1539 2.9235 4.4411 -1.8921 16.0742 -20.9794 55.6304 24.6272 3.2096 -11.1135 5.3703 12.0811 -0.7651 -1.4448 -9.4589 1.3900 0.0991 -8.7831 0.4087 0.6674 -19.8669 0.8073 3.3826 -12.5947 -0.4213 25.9884 -2.3468 5.4775 34.5068 -52.8262 -17.0965 -3.3372 4.9013 1.8668 33.9489 -33.8179 -97.6228 -25.0494 3.1222 11.4319 0.5615 8.0499 3.1232 0.7821 -10.2991 -1.9007 0.0000 -0.0000 0.0000 0.3453 -31.9175 5.8737 -24.7875 55.6812 -24.3414 -3.6902 28.6063 -8.4988 -5.3620 12.8115 -11.6617 
0.0710 3.7937 -1.6057 -14.8290 65.6816 -11.9924 0.0000 -0.0000 0.0000 16.5016 -79.2644 -20.8537 135.8166 55.4657 130.1316 14.5467 15.7622 10.5067 1.9462 11.7271 9.6135 0.0000 -0.0000 0.0000 -0.3091 12.8745 -0.8500 -1.9712 25.7089 -3.3744 -11.2613 4.1168 24.8428 -81.7474 -65.3716 85.6452 2.0481 3.4653 -1.9345 14.9960 -22.1735 58.6260 24.5545 3.2347 -11.2306 5.4962 11.9241 -0.6557 -1.3552 -9.5736 1.4597 0.0374 -8.8918 0.5426 0.5866 -19.9781 0.9246 3.4667 -13.1769 -0.9875 26.1680 -2.4569 5.6885 33.6378 -51.3550 -17.9423 -3.6393 5.2368 1.8462 36.1363 -35.6315 -98.7730 -25.0408 2.9788 11.2277 0.4635 7.9482 3.0282 0.7923 -10.2858 -1.8928 0.0000 -0.0000 0.0000 1.2662 -35.8962 5.1841 -27.2328 59.8676 -26.7683 -3.1055 27.1999 -6.7853 -5.4053 13.1404 -11.7763 
0.1732 3.8369 -1.5951 -14.4548 66.0560 -11.8255 0.0000 -0.0000 0.0000 15.9224 -76.4006 -22.1085 133.6646 57.7144 127.4589 14.2941 13.0314 9.8680 2.0005 13.6243 9.5834 0.0000 -0.0000 0.0000 -0.0598 13.1260 -0.4971 -1.1632 26.2365 -2.2884 -9.6202 3.6552 23.4042 -85.9333 -65.4929 85.3819 0.7469 2.0110 -1.9701 13.9819 -22.4357 61.7417 24.5654 3.2310 -11.2131 5.4774 11.9476 -0.6721 -1.3686 -9.5564 1.4493 -0.0821 -8.7592 0.4786 0.4858 -19.8449 0.8435 3.1031 -13.8587 -1.5068 24.8325 -2.1616 5.8104 35.0909 -50.0514 -20.1824 -5.0416 6.7882 1.7278 37.9986 -38.6162 -98.6219 -25.0108 2.5588 10.6774 0.1981 7.6418 2.7611 0.8195 -10.2504 -1.8718 0.0000 -0.0000 0.0000 1.0633 -40.1766 4.3191 -31.0855 65.0333 -30.2307 -2.5132 24.6755 -5.0472 -5.5851 13.6775 -12.0464 
